<svg xmlns="http://www.w3.org/2000/svg" width="16" height="15.999" viewBox="0 0 16 15.999">
  <path id="パス_221" data-name="パス 221" d="M-189.012,169.023a1.245,1.245,0,0,0-1.246,1.245v.031l-.029-.01a1.246,1.246,0,0,0-1.569.8,1.246,1.246,0,0,0,.8,1.569l.029.008-.018.024a1.245,1.245,0,0,0,.275,1.739,1.245,1.245,0,0,0,1.738-.276l.018-.025.017.025a1.246,1.246,0,0,0,1.739.276,1.246,1.246,0,0,0,.275-1.739l-.019-.024.029-.008a1.246,1.246,0,0,0,.8-1.569,1.246,1.246,0,0,0-1.569-.8l-.029.01v-.031a1.245,1.245,0,0,0-1.245-1.245m0,4.179a1.192,1.192,0,0,1-1.192-1.192,1.192,1.192,0,0,1,1.192-1.192,1.192,1.192,0,0,1,1.192,1.192A1.192,1.192,0,0,1-189.012,173.2Zm.886-1.192a.887.887,0,0,1-.886.886.887.887,0,0,1-.887-.886.887.887,0,0,1,.887-.887A.887.887,0,0,1-188.125,172.01Zm6.555-6.306h-3.219a4.271,4.271,0,0,0-4.222-3.721,4.271,4.271,0,0,0-4.223,3.721h-3.218a.558.558,0,0,0-.559.558v11.162a.558.558,0,0,0,.559.558h14.883a.558.558,0,0,0,.558-.558V166.263A.558.558,0,0,0-181.57,165.7Zm-7.441-2.6a3.162,3.162,0,0,1,3.106,2.6h-6.213A3.162,3.162,0,0,1-189.012,163.1Zm6.882,13.767h-13.766V166.821h13.766Z" transform="translate(197.012 -161.984)"/>
</svg>
